<svg width="26" height="28" viewBox="0 0 26 28" fill="none" xmlns="http://www.w3.org/2000/svg">
<path d="M7.1503 23.4001H22.1003L26.0004 27.3001V13.6501C26.0004 12.2201 24.8304 11.05 23.4003 11.05H7.1503C5.7203 11.05 4.55029 12.2201 4.55029 13.6501V20.8001C4.55029 22.2301 5.7203 23.4001 7.1503 23.4001Z" fill="#8C1C13"/>
<path d="M16.12 18.7201H13.78L13.325 20.0851H11.895L14.3 13.5851H15.535L17.94 20.0851H16.51L16.12 18.7201ZM14.105 17.6801H15.73L14.95 15.2101L14.105 17.6801Z" fill="white"/>
<path d="M18.8501 13.65H3.90001L0 17.5501V2.60001C0 1.17 1.17 0 2.60001 0H18.8501C20.2801 0 21.4501 1.17 21.4501 2.60001V11.05C21.4501 12.48 20.2801 13.65 18.8501 13.65Z" fill="#E83628"/>
<path d="M13.9104 6.63001C13.9104 7.28001 13.7804 7.80001 13.5854 8.25501C13.3904 8.71001 13.1304 9.10001 12.7404 9.36001L13.8454 10.205L13.0004 10.985L11.5704 9.88002C11.4404 9.88002 11.2454 9.94502 11.0504 9.94502C10.6604 9.94502 10.2704 9.88002 9.88043 9.75002C9.55543 9.62002 9.23043 9.36002 8.97043 9.10001C8.71043 8.84001 8.51543 8.45001 8.38543 8.06001C8.25543 7.67001 8.19043 7.21501 8.19043 6.69501V6.43501C8.19043 5.91501 8.25543 5.46 8.38543 5.07C8.51543 4.68 8.71043 4.29 8.97043 4.03C9.23043 3.77 9.49043 3.51 9.88043 3.38C10.2054 3.25 10.5954 3.185 11.0504 3.185C11.4404 3.185 11.8304 3.25 12.2204 3.38C12.5454 3.51 12.8704 3.77 13.1304 4.03C13.3904 4.29 13.5854 4.68 13.7154 5.07C13.8454 5.46 13.9104 5.91501 13.9104 6.43501V6.63001ZM12.4804 6.30501C12.4804 5.59 12.3504 5.07 12.0904 4.745C11.8304 4.355 11.5054 4.225 11.0504 4.225C10.5954 4.225 10.2054 4.42 10.0104 4.745C9.75043 5.135 9.62043 5.655 9.62043 6.30501V6.63001C9.62043 6.95501 9.68543 7.28001 9.75043 7.54001C9.81544 7.80001 9.88043 8.06001 10.0104 8.19001C10.1404 8.38501 10.2704 8.51501 10.4654 8.58001C10.6604 8.64501 10.8554 8.71001 11.0504 8.71001C11.5054 8.71001 11.8954 8.51501 12.0904 8.19001C12.3504 7.80001 12.4804 7.28001 12.4804 6.56501V6.30501Z" fill="white"/>
</svg>
