<svg width="22" height="18" viewBox="0 0 22 18" fill="none" xmlns="http://www.w3.org/2000/svg">
<path fill-rule="evenodd" clip-rule="evenodd" d="M15.4 0H2.2C1.61652 0 1.05694 0.234014 0.644365 0.650561C0.231785 1.06711 0 1.63207 0 2.22115V15.5481C0 16.1372 0.231785 16.7021 0.644365 17.1187C1.05694 17.5352 1.61652 17.7692 2.2 17.7692H15.4C15.4 17.4747 15.5159 17.1922 15.7222 16.9839C15.9285 16.7757 16.2083 16.6587 16.5 16.6587C16.7917 16.6587 17.0715 16.7757 17.2778 16.9839C17.4841 17.1922 17.6 17.4747 17.6 17.7692H19.8C20.3835 17.7692 20.9431 17.5352 21.3556 17.1187C21.7682 16.7021 22 16.1372 22 15.5481V2.22115C22 1.63207 21.7682 1.06711 21.3556 0.650561C20.9431 0.234014 20.3835 0 19.8 0H17.6C17.6 0.294543 17.4841 0.577023 17.2778 0.785296C17.0715 0.99357 16.7917 1.11058 16.5 1.11058C16.2083 1.11058 15.9285 0.99357 15.7222 0.785296C15.5159 0.577023 15.4 0.294543 15.4 0ZM16.5 5.554C16.7917 5.554 17.0715 5.43699 17.2778 5.22871C17.4841 5.02044 17.6 4.73796 17.6 4.44342V4.44231C17.6 4.14776 17.4841 3.86528 17.2778 3.65701C17.0715 3.44874 16.7917 3.33173 16.5 3.33173C16.2083 3.33173 15.9285 3.44874 15.7222 3.65701C15.5159 3.86528 15.4 4.14776 15.4 4.44231V4.44342C15.4 4.73796 15.5159 5.02044 15.7222 5.22871C15.9285 5.43699 16.2083 5.554 16.5 5.554ZM17.6 8.88573C17.6 9.18027 17.4841 9.46275 17.2778 9.67102C17.0715 9.8793 16.7917 9.9963 16.5 9.9963C16.2083 9.9963 15.9285 9.8793 15.7222 9.67102C15.5159 9.46275 15.4 9.18027 15.4 8.88573V8.88461C15.4 8.59007 15.5159 8.30759 15.7222 8.09932C15.9285 7.89105 16.2083 7.77404 16.5 7.77404C16.7917 7.77404 17.0715 7.89105 17.2778 8.09932C17.4841 8.30759 17.6 8.59007 17.6 8.88461V8.88573ZM16.5 14.4386C16.7917 14.4386 17.0715 14.3216 17.2778 14.1133C17.4841 13.9051 17.6 13.6226 17.6 13.328C17.6 13.0335 17.4841 12.7499 17.2778 12.5416C17.0715 12.3334 16.7917 12.2163 16.5 12.2163C16.2083 12.2163 15.9285 12.3334 15.7222 12.5416C15.5159 12.7499 15.4 13.0324 15.4 13.3269C15.4 13.6215 15.5159 13.9051 15.7222 14.1133C15.9285 14.3216 16.2083 14.4386 16.5 14.4386ZM13.0152 6.16925C13.1771 5.92419 13.236 5.62423 13.1788 5.33536C13.1217 5.04648 12.9532 4.79236 12.7105 4.62888C12.4678 4.46541 12.1707 4.40599 11.8845 4.46368C11.5984 4.52137 11.3467 4.69145 11.1848 4.93651L7.5295 10.4727L6.2777 9.21001C6.07024 9.00771 5.79238 8.89577 5.50396 8.8983C5.21554 8.90083 4.93965 9.01763 4.7357 9.22354C4.53175 9.42945 4.41606 9.708 4.41356 9.99919C4.41105 10.2904 4.52193 10.5709 4.7223 10.7804L6.9223 13.0015C7.03735 13.1179 7.17657 13.207 7.32989 13.2625C7.48322 13.3179 7.64682 13.3383 7.8089 13.3222C7.97098 13.306 8.12748 13.2537 8.26711 13.1691C8.40673 13.0845 8.526 12.9696 8.6163 12.8327L13.0163 6.16925H13.0152Z" fill="#8C1C13"/>
</svg>
