<svg width="25" height="25" viewBox="0 0 25 25" fill="none" xmlns="http://www.w3.org/2000/svg">
<path d="M12.5 0C10.0277 0 7.61099 0.733112 5.55538 2.10663C3.49976 3.48015 1.89761 5.43238 0.951511 7.71645C0.0054161 10.0005 -0.242126 12.5139 0.24019 14.9386C0.722505 17.3634 1.91301 19.5907 3.66117 21.3388C5.40933 23.087 7.63661 24.2775 10.0614 24.7598C12.4861 25.2421 14.9995 24.9946 17.2835 24.0485C19.5676 23.1024 21.5199 21.5002 22.8934 19.4446C24.2669 17.389 25 14.9723 25 12.5C24.9961 9.18599 23.6779 6.00884 21.3345 3.66548C18.9912 1.32213 15.814 0.00390963 12.5 0ZM12.5 22.7273C10.4772 22.7273 8.4999 22.1274 6.81804 21.0037C5.13617 19.8799 3.82531 18.2826 3.05124 16.4138C2.27716 14.545 2.07463 12.4887 2.46925 10.5048C2.86387 8.52086 3.83792 6.69853 5.26823 5.26822C6.69854 3.83792 8.52087 2.86386 10.5048 2.46924C12.4887 2.07462 14.545 2.27715 16.4138 3.05123C18.2826 3.82531 19.8799 5.13616 21.0037 6.81803C22.1275 8.4999 22.7273 10.4772 22.7273 12.5C22.724 15.2114 21.6454 17.8108 19.7281 19.7281C17.8109 21.6454 15.2114 22.724 12.5 22.7273ZM13.6364 17.6136V19.8864H11.3636V17.6136H13.6364ZM17.0455 9.65909C17.0467 10.3406 16.894 11.0136 16.5989 11.6279C16.3038 12.2422 15.8737 12.7819 15.3409 13.2068C14.4802 13.8738 13.8982 14.8369 13.708 15.9091H11.3989C11.4993 15.033 11.7742 14.1859 12.2073 13.4177C12.6404 12.6495 13.2229 11.9758 13.9205 11.4364C14.2004 11.2123 14.4234 10.9252 14.5711 10.5985C14.7189 10.2718 14.7872 9.91476 14.7706 9.55659C14.754 9.19841 14.6529 8.84925 14.4755 8.53763C14.2981 8.22602 14.0495 7.96079 13.75 7.76363C13.4162 7.54545 13.0321 7.4163 12.6343 7.38845C12.2365 7.36061 11.8382 7.435 11.4773 7.60454C11.0923 7.78908 10.7692 8.0815 10.5473 8.44624C10.3253 8.81099 10.2142 9.23234 10.2273 9.65909C10.2273 9.96047 10.1076 10.2495 9.89444 10.4626C9.68133 10.6757 9.39229 10.7955 9.09091 10.7955C8.78953 10.7955 8.50049 10.6757 8.28738 10.4626C8.07427 10.2495 7.95455 9.96047 7.95455 9.65909C7.93764 8.78572 8.17862 7.92675 8.64733 7.18962C9.11605 6.45249 9.7917 5.86992 10.5898 5.51477C11.2972 5.19861 12.0729 5.06568 12.8452 5.12824C13.6176 5.19079 14.3618 5.44683 15.0091 5.87273C15.6346 6.28681 16.1479 6.84927 16.5032 7.50993C16.8585 8.1706 17.0448 8.90894 17.0455 9.65909Z" fill="white"/>
</svg>
