<svg width="22" height="22" viewBox="0 0 22 22" fill="none" xmlns="http://www.w3.org/2000/svg">
<path d="M7.73769 4.35933L4.94023 7.14837C4.42604 7.66102 3.95435 8.13126 3.58185 8.55637C3.34263 8.82932 3.10358 9.12819 2.9011 9.4583L2.87384 9.43113C2.82209 9.37954 2.7962 9.35369 2.77022 9.3285C2.28399 8.85671 1.71205 8.48163 1.08499 8.22328C1.05149 8.20947 1.01748 8.196 0.949452 8.16905L0.532939 8.004C-0.0313145 7.78042 -0.181695 7.05403 0.247655 6.62598C1.47988 5.39749 2.95934 3.92251 3.67334 3.62626C4.30302 3.365 4.98323 3.27806 5.63928 3.37502C6.24039 3.46385 6.80904 3.77262 7.73769 4.35933Z" fill="#8C1C13"/>
<path d="M12.5142 19.0444C12.7395 19.2732 12.8893 19.4348 13.0247 19.6075C13.2032 19.8353 13.3629 20.0774 13.5021 20.3311C13.6587 20.6168 13.7804 20.9219 14.0237 21.5322C14.2217 22.029 14.8797 22.1604 15.2618 21.7793L15.3542 21.6872C16.5865 20.4586 18.0658 18.9836 18.3629 18.2718C18.6251 17.6439 18.7122 16.9658 18.6149 16.3117C18.5259 15.7124 18.2163 15.1456 17.6279 14.22L14.8212 17.0183C14.2953 17.5426 13.8131 18.0234 13.3771 18.3999C13.1157 18.6257 12.8299 18.8513 12.5142 19.0444Z" fill="#8C1C13"/>
<path fill-rule="evenodd" clip-rule="evenodd" d="M13.6913 15.8145L20.1228 9.40232C21.0491 8.47888 21.5122 8.01716 21.756 7.43C22 6.84286 22 6.18988 22 4.88393V4.26003C22 2.25183 22 1.24774 21.3742 0.623862C20.7486 1.3113e-07 19.7414 0 17.7272 0H17.1014C15.7915 0 15.1366 9.83472e-08 14.5477 0.243209C13.9587 0.486418 13.4956 0.94814 12.5694 1.8716L6.13789 8.28382C5.05558 9.36283 4.38449 10.032 4.12462 10.6782C4.04252 10.8824 4.00146 11.0843 4.00146 11.2961C4.00146 12.1784 4.7136 12.8884 6.13789 14.3084L6.32931 14.4993L8.57167 12.2235C8.89149 11.8989 9.41377 11.895 9.73838 12.2148C10.0629 12.5345 10.0667 13.0569 9.74696 13.3815L7.4978 15.6643L7.64856 15.8145C9.07288 17.2346 9.78502 17.9445 10.67 17.9445C10.8654 17.9445 11.0525 17.9099 11.2408 17.8406C11.9044 17.5962 12.5818 16.9208 13.6913 15.8145ZM16.7128 8.28428C15.8784 9.1161 14.5258 9.1161 13.6914 8.28428C12.8571 7.45247 12.8571 6.10382 13.6914 5.27199C14.5258 4.44016 15.8784 4.44016 16.7128 5.27199C17.5471 6.10382 17.5471 7.45247 16.7128 8.28428Z" fill="#8C1C13"/>
</svg>
