<svg width="256" height="256" viewBox="0 0 256 256" fill="none" xmlns="http://www.w3.org/2000/svg">
<path d="M248 72V40C248 33.6348 245.472 27.5303 240.971 23.0294C236.47 18.5286 230.365 16 224 16H192V8C192 5.87827 191.157 3.84344 189.657 2.34315C188.157 0.842855 186.122 0 184 0C181.878 0 179.844 0.842855 178.343 2.34315C176.843 3.84344 176 5.87827 176 8V16H136V8C136 5.87827 135.157 3.84344 133.657 2.34315C132.157 0.842855 130.122 0 128 0C125.878 0 123.844 0.842855 122.343 2.34315C120.843 3.84344 120 5.87827 120 8V16H80.0001V8C80.0001 5.87827 79.1573 3.84344 77.657 2.34315C76.1567 0.842855 74.1219 0 72.0001 0C69.8784 0 67.8436 0.842855 66.3433 2.34315C64.843 3.84344 64.0001 5.87827 64.0001 8V40C64.0001 42.1217 64.843 44.1566 66.3433 45.6568C67.8436 47.1571 69.8784 48 72.0001 48C74.1219 48 76.1567 47.1571 77.657 45.6568C79.1573 44.1566 80.0001 42.1217 80.0001 40V32H120V40C120 42.1217 120.843 44.1566 122.343 45.6568C123.844 47.1571 125.878 48 128 48C130.122 48 132.157 47.1571 133.657 45.6568C135.157 44.1566 136 42.1217 136 40V32H176V40C176 42.1217 176.843 44.1566 178.343 45.6568C179.844 47.1571 181.878 48 184 48C186.122 48 188.157 47.1571 189.657 45.6568C191.157 44.1566 192 42.1217 192 40V32H224C226.122 32 228.157 32.8429 229.657 34.3431C231.157 35.8434 232 37.8783 232 40V64H24.0001V40C24.0001 37.8783 24.843 35.8434 26.3433 34.3431C27.8436 32.8429 29.8784 32 32.0001 32H40.0001C42.1219 32 44.1567 31.1571 45.657 29.6569C47.1573 28.1566 48.0001 26.1217 48.0001 24C48.0001 21.8783 47.1573 19.8434 45.657 18.3431C44.1567 16.8429 42.1219 16 40.0001 16H32.0001C25.6349 16 19.5304 18.5286 15.0296 23.0294C10.5287 27.5303 8.00012 33.6348 8.00012 40V232C8.00012 238.365 10.5287 244.47 15.0296 248.971C19.5304 253.471 25.6349 256 32.0001 256H224C230.365 256 236.47 253.471 240.971 248.971C245.472 244.47 248 238.365 248 232V104C248 101.878 247.157 99.8434 245.657 98.3431C244.157 96.8429 242.122 96 240 96C237.878 96 235.844 96.8429 234.343 98.3431C232.843 99.8434 232 101.878 232 104V232C232 234.122 231.157 236.157 229.657 237.657C228.157 239.157 226.122 240 224 240H32.0001C29.8784 240 27.8436 239.157 26.3433 237.657C24.843 236.157 24.0001 234.122 24.0001 232V80H240C242.122 80 244.157 79.1571 245.657 77.6568C247.157 76.1566 248 74.1217 248 72Z" fill="black"/>
<rect x="54.7954" y="101.341" width="53.3182" height="117.318" rx="12.375" stroke="black" stroke-width="16.5"/>
<path d="M147.886 179.402H201.205V206.285C201.205 213.119 195.664 218.66 188.83 218.66H160.261C153.427 218.66 147.886 213.119 147.886 206.285V179.402Z" fill="black" stroke="black" stroke-width="16.5"/>
<path d="M160.26 101.341H188.828C195.663 101.341 201.203 106.881 201.203 113.716V162.901H147.885V113.716C147.885 106.881 153.426 101.341 160.26 101.341Z" stroke="black" stroke-width="16.5"/>
</svg>
